# xmcd CD database file
#
# Track frame offsets:
#	150
#	28127
#	79264
#	106928
#	128672
#	160696
#	189208
#	219725
#	255500
#	283933
#
# Disc length: 4142 seconds
#
# Revision: 0
# Processed by: cddbd v1.5.1PL0 Copyright (c) Steve Scherf et al.
# Submitted via: CDex 1.51
#
DISCID=85102c0a
DTITLE=Jazz Ballads - Live Recording From Kiev
DYEAR=2000
DGENRE=Jazz
TTITLE0=Unity - And I Love Him
TTITLE1=—хид-Side - Psalm
TTITLE2=Sergey Ovsyannikov Quartet - Polka Dots And Moonbeams
TTITLE3=Yuri Shepeta - Minha
TTITLE4=Vitaliy Ivanov - Alto Room
TTITLE5=Night Groove - If I Should Loose You
TTITLE6=Lembit Saarsalu - Leonid Vintskevich - O Grande Amor
TTITLE7=Konstantin Strelchenko - Rue Du Rendez-Vous
TTITLE8=Andrey Prozorov - Touch Her Soft Lips And Part
TTITLE9=Wlodzimierz Nahorny - Jei Portret
EXTD=YEAR: 2000
EXTT0=
EXTT1=
EXTT2=
EXTT3=
EXTT4=
EXTT5=
EXTT6=
EXTT7=
EXTT8=
EXTT9=
PLAYORDER=
